<svg width="128" height="128" viewBox="0 0 128 128" fill="none" xmlns="http://www.w3.org/2000/svg">
<path d="M122.822 28L6.28804 96.8506C5.91395 97.0716 5.62288 97.4095 5.45963 97.8122C5.29638 98.2149 5.27001 98.66 5.38457 99.0791C5.49914 99.4983 5.74829 99.8681 6.09366 100.132C6.43904 100.395 6.8615 100.538 7.296 100.538H30.6874H122.93C123.661 100.538 124.363 100.248 124.88 99.7302C125.398 99.2128 125.688 98.5111 125.688 97.7795V30.8664C125.688 30.49 125.614 30.1173 125.47 29.7695C125.326 29.4217 125.115 29.1057 124.849 28.8396C124.583 28.5734 124.267 28.3622 123.919 28.2182C123.571 28.0741 123.198 28 122.822 28ZM109.269 56.4394V84.1183H61.3281L109.269 56.4394Z" fill="#F5C211"/>
<path d="M122.822 28L4.06509 96.5633C3.65899 96.7977 3.3416 97.1597 3.16215 97.5929C2.9827 98.0261 2.95122 98.5064 3.07258 98.9594C3.19395 99.4123 3.46138 99.8125 3.8334 100.098C4.20542 100.383 4.66124 100.538 5.13016 100.538H27.8209H122.822V28ZM106.402 56.4394V84.1183H58.4617L106.402 56.4394Z" fill="#F6D32D"/>
<path d="M119.89 94.6741V100.538" stroke="#B38108" stroke-width="1.17286"/>
<path d="M102.297 94.6741V100.538" stroke="#B38108" stroke-width="1.17286"/>
<path d="M84.7041 94.6741V100.538" stroke="#B38108" stroke-width="1.17286"/>
<path d="M67.1113 94.6741V100.538" stroke="#B38108" stroke-width="1.17286"/>
<path d="M49.5186 94.6741V100.538" stroke="#B38108" stroke-width="1.17286"/>
<path d="M31.9258 94.6741V100.538" stroke="#B38108" stroke-width="1.17286"/>
<path d="M14.333 94.6741V100.538" stroke="#B38108" stroke-width="1.17286"/>
<path d="M116.371 97.0198V100.538" stroke="#B38108" stroke-width="1.17285"/>
<path d="M112.853 97.0198V100.538" stroke="#B38108" stroke-width="1.17285"/>
<path d="M109.334 97.0198V100.538" stroke="#B38108" stroke-width="1.17285"/>
<path d="M105.816 97.0198V100.538" stroke="#B38108" stroke-width="1.17285"/>
<path d="M98.7783 97.0198V100.538" stroke="#B38108" stroke-width="1.17285"/>
<path d="M95.2598 97.0198V100.538" stroke="#B38108" stroke-width="1.17285"/>
<path d="M91.7415 97.0198V100.538" stroke="#B38108" stroke-width="1.17285"/>
<path d="M88.2229 97.0198V100.538" stroke="#B38108" stroke-width="1.17285"/>
<path d="M81.1855 97.0198V100.538" stroke="#B38108" stroke-width="1.17285"/>
<path d="M77.6672 97.0198V100.538" stroke="#B38108" stroke-width="1.17285"/>
<path d="M74.1487 97.0198V100.538" stroke="#B38108" stroke-width="1.17285"/>
<path d="M70.6299 97.0198V100.538" stroke="#B38108" stroke-width="1.17285"/>
<path d="M63.593 97.0198V100.538" stroke="#B38108" stroke-width="1.17285"/>
<path d="M60.0745 97.0198V100.538" stroke="#B38108" stroke-width="1.17285"/>
<path d="M56.5557 97.0198V100.538" stroke="#B38108" stroke-width="1.17285"/>
<path d="M53.0371 97.0198V100.538" stroke="#B38108" stroke-width="1.17285"/>
<path d="M46.0002 97.0198V100.538" stroke="#B38108" stroke-width="1.17285"/>
<path d="M42.4814 97.0198V100.538" stroke="#B38108" stroke-width="1.17285"/>
<path d="M38.9629 97.0198V100.538" stroke="#B38108" stroke-width="1.17285"/>
<path d="M35.4443 97.0198V100.538" stroke="#B38108" stroke-width="1.17285"/>
<path d="M28.4072 97.0198V100.538" stroke="#B38108" stroke-width="1.17285"/>
<path d="M24.8887 97.0198V100.538" stroke="#B38108" stroke-width="1.17285"/>
<path d="M21.3701 97.0198V100.538" stroke="#B38108" stroke-width="1.17285"/>
<path d="M17.8516 97.0198V100.538" stroke="#B38108" stroke-width="1.17285"/>
<path d="M10.8145 97.0198V100.538" stroke="#B38108" stroke-width="1.17285"/>
<path d="M7.2959 97.0198V100.538" stroke="#B38108" stroke-width="1.17285"/>
</svg>
