<svg width="128" height="128" viewBox="0 0 128 128" fill="none" xmlns="http://www.w3.org/2000/svg">
<path d="M110.286 80H17.7143C13.4538 80 10 83.4538 10 87.7143L10 95.4286C10 99.6891 13.4538 103.143 17.7143 103.143H110.286C114.546 103.143 118 99.6891 118 95.4286V87.7143C118 83.4538 114.546 80 110.286 80Z" fill="#1A5FB4"/>
<path d="M110.286 26L17.7143 26C13.4538 26 10 29.4538 10 33.7143L10 91.5714C10 95.8319 13.4538 99.2857 17.7143 99.2857H110.286C114.546 99.2857 118 95.8319 118 91.5714V33.7143C118 29.4538 114.546 26 110.286 26Z" fill="#62A0EA"/>
<path d="M37 97.3572H91L87.1429 87.7144H40.8571L37 97.3572Z" fill="#3584E4" stroke="#3584E4" stroke-width="3.85714" stroke-linecap="round" stroke-linejoin="round"/>
<path d="M15.7855 33.7141C16.8506 33.7141 17.7141 32.8506 17.7141 31.7855C17.7141 30.7204 16.8506 29.8569 15.7855 29.8569C14.7204 29.8569 13.8569 30.7204 13.8569 31.7855C13.8569 32.8506 14.7204 33.7141 15.7855 33.7141Z" fill="#424048"/>
<path d="M15.7855 95.4284C16.8506 95.4284 17.7141 94.565 17.7141 93.4999C17.7141 92.4347 16.8506 91.5713 15.7855 91.5713C14.7204 91.5713 13.8569 92.4347 13.8569 93.4999C13.8569 94.565 14.7204 95.4284 15.7855 95.4284Z" fill="#424048"/>
<path d="M112.214 33.7141C113.279 33.7141 114.143 32.8506 114.143 31.7855C114.143 30.7204 113.279 29.8569 112.214 29.8569C111.149 29.8569 110.286 30.7204 110.286 31.7855C110.286 32.8506 111.149 33.7141 112.214 33.7141Z" fill="#424048"/>
<path d="M112.214 95.4284C113.279 95.4284 114.143 94.565 114.143 93.4999C114.143 92.4347 113.279 91.5713 112.214 91.5713C111.149 91.5713 110.286 92.4347 110.286 93.4999C110.286 94.565 111.149 95.4284 112.214 95.4284Z" fill="#424048"/>
<path d="M33.1431 97.3574H94.8573V103.143H33.1431V97.3574Z" fill="#1A5FB4"/>
<path d="M25.4286 33.7144L102.571 33.7144L110.286 41.4286V83.8572H17.7144L17.7144 41.4286L25.4286 33.7144Z" fill="#F6F5F4"/>
<path d="M17.7144 47.2144L110.286 47.2144V74.2144H17.7144V47.2144Z" fill="#424048"/>
<path d="M40.857 66.4997C44.0524 66.4997 46.6427 63.9093 46.6427 60.7139C46.6427 57.5186 44.0524 54.9282 40.857 54.9282C37.6616 54.9282 35.0713 57.5186 35.0713 60.7139C35.0713 63.9093 37.6616 66.4997 40.857 66.4997Z" fill="#F6F5F4"/>
<path d="M87.1431 66.4997C90.3385 66.4997 92.9289 63.9093 92.9289 60.7139C92.9289 57.5186 90.3385 54.9282 87.1431 54.9282C83.9478 54.9282 81.3574 57.5186 81.3574 60.7139C81.3574 63.9093 83.9478 66.4997 87.1431 66.4997Z" fill="#F6F5F4"/>
<path d="M52.4287 54.9282H75.5716V66.4997H52.4287V54.9282Z" fill="#949390"/>
<mask id="mask0_63_353" style="mask-type:luminance" maskUnits="userSpaceOnUse" x="52" y="54" width="24" height="13">
<path d="M52.4287 54.9282H75.5716V66.4997H52.4287V54.9282Z" fill="white"/>
</mask>
<g mask="url(#mask0_63_353)">
<path opacity="0.5" d="M67.8569 60.7139C67.8569 75.6256 55.7686 87.7139 40.8569 87.7139C25.9452 87.7139 13.8569 75.6256 13.8569 60.7139C13.8569 45.8022 25.9452 33.7139 40.8569 33.7139C55.7686 33.7139 67.8569 45.8022 67.8569 60.7139Z" fill="#424048"/>
</g>
</svg>
