<?xml version="1.0" encoding="UTF-8" standalone="no"?>
<svg
   height="16px"
   viewBox="0 0 16 16"
   width="16px"
   version="1.1"
   id="svg1"
   sodipodi:docname="folder-download-symbolic.svg"
   inkscape:version="1.4.2 (ebf0e940d0, 2025-05-08)"
   xmlns:inkscape="http://www.inkscape.org/namespaces/inkscape"
   xmlns:sodipodi="http://sodipodi.sourceforge.net/DTD/sodipodi-0.dtd"
   xmlns="http://www.w3.org/2000/svg"
   xmlns:svg="http://www.w3.org/2000/svg">
  <defs
     id="defs1" />
  <sodipodi:namedview
     id="namedview1"
     pagecolor="#ffffff"
     bordercolor="#000000"
     borderopacity="0.25"
     inkscape:showpageshadow="2"
     inkscape:pageopacity="0.0"
     inkscape:pagecheckerboard="0"
     inkscape:deskcolor="#d1d1d1"
     inkscape:zoom="35.57631"
     inkscape:cx="5.7200986"
     inkscape:cy="8.0109489"
     inkscape:window-width="1920"
     inkscape:window-height="1043"
     inkscape:window-x="0"
     inkscape:window-y="0"
     inkscape:window-maximized="1"
     inkscape:current-layer="svg1" />
  <path
     d="m 8 0 c -0.550781 0 -1 0.449219 -1 1 v 8.585938 l -2.292969 -2.292969 c -0.1875 -0.1875 -0.441406 -0.292969 -0.707031 -0.292969 s -0.519531 0.105469 -0.707031 0.292969 c -0.390625 0.390625 -0.390625 1.023437 0 1.414062 l 4 4 c 0.390625 0.390625 1.023437 0.390625 1.414062 0 l 4 -4 c 0.390625 -0.390625 0.390625 -1.023437 0 -1.414062 s -1.023437 -0.390625 -1.414062 0 l -2.292969 2.292969 v -8.585938 c 0 -0.550781 -0.449219 -1 -1 -1 z m -6 14 v 2 h 12 v -2 z m 0 0"
     fill="#2e3436"
     id="path1" />
  <path
     d="m 13.668638,0 v 1.8343254 h 1.83432 V 3.668635 h -1.83432 v 1.834324 h -1.83432 V 3.668635 H 10 V 1.8343254 h 1.834318 V 0 Z"
     id="path3"
     style="fill:#2e3436;fill-opacity:1;stroke-width:0.917162"
     sodipodi:nodetypes="ccccccccccccc" />
</svg>
