<?xml version="1.0" encoding="UTF-8"?>
<svg height="16px" viewBox="0 0 16 16" width="16px" xmlns="http://www.w3.org/2000/svg">
    <path d="m 7.945312 0.0195312 c -1.152343 0.0039063 -2.257812 0.4726568 -3.0625 1.2968748 l -2.90625 2.972656 c -1.265624 1.296876 -1.976562 3.039063 -1.976562 4.851563 v 4.859375 c 0 1.105469 0.894531 2 2 2 h 12 c 1.105469 0 2 -0.894531 2 -2 v -4.859375 c 0 -1.8125 -0.714844 -3.550781 -1.992188 -4.835937 l -2.988281 -3.011719 c -0.8125 -0.820313 -1.921875 -1.277344 -3.074219 -1.2734378 z m 0.054688 1.9804688 c 1.105469 0 2 0.894531 2 2 s -0.894531 2 -2 2 s -2 -0.894531 -2 -2 s 0.894531 -2 2 -2 z m 0 0" fill="#3d3846"/>
</svg>
