<?xml version="1.0" encoding="UTF-8"?>
<svg height="128px" viewBox="0 0 128 128" width="128px" xmlns="http://www.w3.org/2000/svg" xmlns:xlink="http://www.w3.org/1999/xlink">
    <filter id="a" height="100%" width="100%" x="0%" y="0%">
        <feColorMatrix color-interpolation-filters="sRGB" values="0 0 0 0 1 0 0 0 0 1 0 0 0 0 1 0 0 0 1 0"/>
    </filter>
    <linearGradient id="b" gradientUnits="userSpaceOnUse" x1="106.507103" x2="108.716812" y1="192.813751" y2="191.04599">
        <stop offset="0" stop-color="#3d3846"/>
        <stop offset="1" stop-color="#5e5c64"/>
    </linearGradient>
    <linearGradient id="c" gradientUnits="userSpaceOnUse" x1="2" x2="112" y1="74" y2="74">
        <stop offset="0" stop-color="#ef939a"/>
        <stop offset="0.0456911" stop-color="#c01c28"/>
        <stop offset="0.436364" stop-color="#c01c28"/>
        <stop offset="0.545455" stop-color="#eb7981"/>
        <stop offset="0.618182" stop-color="#c01c28"/>
        <stop offset="0.936003" stop-color="#c01c28"/>
        <stop offset="1" stop-color="#650e14"/>
    </linearGradient>
    <linearGradient id="d" gradientUnits="userSpaceOnUse" x1="68" x2="73.75" y1="125.75" y2="64">
        <stop offset="0" stop-color="#ff7800"/>
        <stop offset="1" stop-color="#f66151"/>
    </linearGradient>
    <clipPath id="e">
        <path d="m 74 0 h 54 v 106 h -54 z m 0 0"/>
    </clipPath>
    <clipPath id="f">
        <path d="m 84.816406 0.652344 h 46.300782 v 93.921875 h -46.300782 z m 18.339844 19.90625 c -4.097656 -4.097656 -9.648438 -6.414063 -15.445312 -6.445313 l -29.988282 -0.164062 c -6.464844 -0.03125 -12.671875 2.519531 -17.246094 7.089843 l -36.273437 36.277344 c -3.945313 3.945313 -3.945313 10.339844 0 14.285156 l 47.949219 47.945313 c 3.945312 3.949219 10.339844 3.949219 14.285156 0.003906 l 36.273438 -36.273437 c 4.570312 -4.574219 7.121093 -10.785156 7.082031 -17.25 l -0.179688 -30.027344 c -0.035156 -5.796875 -2.355469 -11.34375 -6.457031 -15.441406 z m -6.578125 6.605468 c -3.230469 -3.234374 -8.472656 -3.234374 -11.703125 0 c -3.234375 3.230469 -3.234375 8.472657 0 11.707032 c 3.230469 3.230468 8.472656 3.230468 11.703125 0 c 3.234375 -3.234375 3.234375 -8.476563 0 -11.707032 z m 0 0"/>
    </clipPath>
    <clipPath id="g">
        <path d="m 85 0 h 43 v 94 h -43 z m 0 0"/>
    </clipPath>
    <clipPath id="h">
        <path d="m 84.816406 0.652344 h 46.300782 v 93.921875 h -46.300782 z m 18.339844 19.90625 c -4.097656 -4.097656 -9.648438 -6.414063 -15.445312 -6.445313 l -29.988282 -0.164062 c -6.464844 -0.03125 -12.671875 2.519531 -17.246094 7.089843 l -36.273437 36.277344 c -3.945313 3.945313 -3.945313 10.339844 0 14.285156 l 47.949219 47.945313 c 3.945312 3.949219 10.339844 3.949219 14.285156 0.003906 l 36.273438 -36.273437 c 4.570312 -4.574219 7.121093 -10.785156 7.082031 -17.25 l -0.179688 -30.027344 c -0.035156 -5.796875 -2.355469 -11.34375 -6.457031 -15.441406 z m -6.578125 6.605468 c -3.230469 -3.234374 -8.472656 -3.234374 -11.703125 0 c -3.234375 3.230469 -3.234375 8.472657 0 11.707032 c 3.230469 3.230468 8.472656 3.230468 11.703125 0 c 3.234375 -3.234375 3.234375 -8.476563 0 -11.707032 z m 0 0"/>
    </clipPath>
    <radialGradient id="i" cx="116.663353" cy="213.265137" gradientTransform="matrix(2.020604 1.986426 -0.519123 0.528055 -14.612328 -154.833984)" gradientUnits="userSpaceOnUse" r="17.152361">
        <stop offset="0" stop-color="#deddda"/>
        <stop offset="1" stop-color="#241f31" stop-opacity="0"/>
    </radialGradient>
    <clipPath id="j">
        <path d="m 74 0 h 51 v 44 h -51 z m 0 0"/>
    </clipPath>
    <clipPath id="k">
        <path d="m 74 0 h 54 v 49 h -54 z m 0 0"/>
    </clipPath>
    <clipPath id="l">
        <path d="m 74 0 h 54 v 106 h -54 z m 0 0"/>
    </clipPath>
    <clipPath id="m">
        <path d="m 84.816406 0.652344 h 46.300782 v 93.921875 h -46.300782 z m 18.339844 19.90625 c -4.097656 -4.097656 -9.648438 -6.414063 -15.445312 -6.445313 l -29.988282 -0.164062 c -6.464844 -0.03125 -12.671875 2.519531 -17.246094 7.089843 l -36.273437 36.277344 c -3.945313 3.945313 -3.945313 10.339844 0 14.285156 l 47.949219 47.945313 c 3.945312 3.949219 10.339844 3.949219 14.285156 0.003906 l 36.273438 -36.273437 c 4.570312 -4.574219 7.121093 -10.785156 7.082031 -17.25 l -0.179688 -30.027344 c -0.035156 -5.796875 -2.355469 -11.34375 -6.457031 -15.441406 z m -6.578125 6.605468 c -3.230469 -3.234374 -8.472656 -3.234374 -11.703125 0 c -3.234375 3.230469 -3.234375 8.472657 0 11.707032 c 3.230469 3.230468 8.472656 3.230468 11.703125 0 c 3.234375 -3.234375 3.234375 -8.476563 0 -11.707032 z m 0 0"/>
    </clipPath>
    <clipPath id="n">
        <path d="m 85 0 h 43 v 94 h -43 z m 0 0"/>
    </clipPath>
    <clipPath id="o">
        <path d="m 84.816406 0.652344 h 46.300782 v 93.921875 h -46.300782 z m 18.339844 19.90625 c -4.097656 -4.097656 -9.648438 -6.414063 -15.445312 -6.445313 l -29.988282 -0.164062 c -6.464844 -0.03125 -12.671875 2.519531 -17.246094 7.089843 l -36.273437 36.277344 c -3.945313 3.945313 -3.945313 10.339844 0 14.285156 l 47.949219 47.945313 c 3.945312 3.949219 10.339844 3.949219 14.285156 0.003906 l 36.273438 -36.273437 c 4.570312 -4.574219 7.121093 -10.785156 7.082031 -17.25 l -0.179688 -30.027344 c -0.035156 -5.796875 -2.355469 -11.34375 -6.457031 -15.441406 z m -6.578125 6.605468 c -3.230469 -3.234374 -8.472656 -3.234374 -11.703125 0 c -3.234375 3.230469 -3.234375 8.472657 0 11.707032 c 3.230469 3.230468 8.472656 3.230468 11.703125 0 c 3.234375 -3.234375 3.234375 -8.476563 0 -11.707032 z m 0 0"/>
    </clipPath>
    <clipPath id="p">
        <rect height="128" width="128"/>
    </clipPath>
    <clipPath id="q">
        <rect height="128" width="128"/>
    </clipPath>
    <mask id="r">
        <g filter="url(#a)">
            <g clip-path="url(#q)" filter="url(#a)">
                <g clip-path="url(#p)">
                    <g clip-path="url(#j)">
                        <path d="m 91.875 198.0625 c 5.886719 2.246094 11.175781 -5.808594 15.625 -9.75" fill="none" stroke="url(#b)" stroke-linecap="round" stroke-width="3" transform="matrix(1 0 0 1 0 -172)"/>
                    </g>
                    <path d="m 95.75 203.9375 c -0.238281 -6.753906 9.175781 -9.621094 13.625 -13.5625" fill="none" stroke="url(#b)" stroke-linecap="round" stroke-width="3" transform="matrix(1 0 0 1 0 -172)"/>
                    <path d="m 103.15625 20.558594 c -4.097656 -4.097656 -9.648438 -6.414063 -15.445312 -6.445313 l -29.988282 -0.164062 c -6.464844 -0.03125 -12.671875 2.519531 -17.246094 7.089843 l -36.273437 36.277344 c -3.945313 3.945313 -3.945313 10.339844 0 14.285156 l 47.949219 47.945313 c 3.945312 3.949219 10.339844 3.949219 14.285156 0.003906 l 36.273438 -36.273437 c 4.570312 -4.574219 7.121093 -10.785156 7.082031 -17.25 l -0.179688 -30.027344 c -0.035156 -5.796875 -2.355469 -11.34375 -6.457031 -15.441406 z m -6.578125 6.605468 c 3.234375 3.230469 3.234375 8.472657 0 11.707032 c -3.230469 3.230468 -8.472656 3.230468 -11.703125 0 c -3.234375 -3.234375 -3.234375 -8.476563 0 -11.707032 c 3.230469 -3.234374 8.472656 -3.234374 11.703125 0 z m 0 0" fill="url(#c)"/>
                    <path d="m 103.15625 18.558594 c -4.097656 -4.097656 -9.648438 -6.414063 -15.445312 -6.445313 l -29.988282 -0.164062 c -6.464844 -0.03125 -12.671875 2.519531 -17.246094 7.089843 l -36.273437 36.277344 c -3.945313 3.945313 -3.945313 10.339844 0 14.285156 l 47.949219 47.945313 c 3.945312 3.949219 10.339844 3.949219 14.285156 0.003906 l 36.273438 -36.273437 c 4.570312 -4.574219 7.121093 -10.785156 7.082031 -17.25 l -0.179688 -30.027344 c -0.035156 -5.796875 -2.355469 -11.34375 -6.457031 -15.441406 z m -6.578125 6.605468 c 3.234375 3.230469 3.234375 8.472657 0 11.707032 c -3.230469 3.230468 -8.472656 3.230468 -11.703125 0 c -3.234375 -3.234375 -3.234375 -8.476563 0 -11.707032 c 3.230469 -3.234374 8.472656 -3.234374 11.703125 0 z m 0 0" fill="url(#d)"/>
                    <g clip-path="url(#k)">
                        <path d="m 97.998114 198 l 7.058594 -10.582031 c 1.132812 -1.703125 3.027344 -2.75 5.070312 -2.808594 c 2.046875 -0.054687 3.992188 0.882813 5.222657 2.519531 l 1.300781 1.742188 c 1.277344 1.699218 1.6875 3.894531 1.113281 5.941406 s -2.066406 3.707031 -4.039062 4.496094 l -11.726563 4.691406" fill="none" stroke="#5e5c64" stroke-linecap="round" stroke-width="3" transform="matrix(1 0 0 1 -6.248114 -172)"/>
                    </g>
                    <path d="m 97.998114 198.000076 l 7.058594 -10.582032 c 1.132812 -1.703125 3.027344 -2.75 5.070312 -2.808593 c 2.046875 -0.054688 3.992188 0.882812 5.222657 2.519531 l 1.300781 1.742187 c 1.277344 1.699219 1.6875 3.894532 1.113281 5.941407 s -2.066406 3.707031 -4.039062 4.496093 l -11.726563 4.691407" fill="none" stroke="#9a9996" stroke-linecap="round" transform="matrix(1 0 0 1 -6.248114 -172.707107)"/>
                    <g clip-path="url(#l)">
                        <g clip-path="url(#m)">
                            <path d="m 106.000995 190 l 4.527344 -6.789062 c 0.816406 -1.230469 2.167969 -1.996094 3.640625 -2.078126 c 1.472656 -0.078124 2.894531 0.542969 3.839844 1.675782 l 1.984375 2.382812 c 2.511719 3.015625 3.40625 7.0625 2.394531 10.859375 l -2.636719 9.886719 c -2.460937 9.222656 -2.535156 18.921875 -0.222656 28.179688 l 1.597656 6.382812 c 1.222657 4.894531 0.257813 10.082031 -2.644531 14.210938 c -2.90625 4.125 -7.460937 6.785156 -12.480469 7.289062 c -4.714843 0.472656 -9.371093 -1.308594 -12.566406 -4.800781 c -3.199219 -3.496094 -4.558594 -8.292969 -3.671875 -12.945313 c 3.199219 -15.371094 10.773438 -29.492187 21.808594 -40.664062 l 6.855469 -7.179688 c 1.488281 -1.558594 1.640625 -3.964844 0.359375 -5.699218 c -1.277344 -1.730469 -3.621094 -2.292969 -5.546875 -1.328126 l -5.238282 2.617188" fill="none" stroke="#5e5c64" stroke-linecap="round" stroke-width="3" transform="matrix(1 0 0 1 1.823223 -174)"/>
                        </g>
                    </g>
                    <g clip-path="url(#n)">
                        <g clip-path="url(#o)">
                            <path d="m 106.000995 190.000076 l 4.527344 -6.789063 c 0.816406 -1.230469 2.167969 -1.996094 3.640625 -2.078125 c 1.472656 -0.078125 2.894531 0.542969 3.839844 1.675781 l 1.984375 2.382813 c 2.511719 3.015625 3.40625 7.0625 2.394531 10.859375 l -2.636719 9.886719 c -2.460937 9.222656 -2.535156 18.921875 -0.222656 28.179687 l 1.597656 6.382813 c 1.222657 4.894531 0.257813 10.082031 -2.644531 14.210937 c -2.90625 4.125 -7.460937 6.785156 -12.480469 7.289063 c -4.714843 0.472656 -9.371093 -1.308594 -12.566406 -4.800782 c -3.199219 -3.496093 -4.558594 -8.292968 -3.671875 -12.945312 c 3.199219 -15.371094 10.773438 -29.492188 21.808594 -40.664063 l 6.855469 -7.179687 c 1.488281 -1.5625 1.640625 -3.964844 0.359375 -5.699219 c -1.277344 -1.730469 -3.621094 -2.292969 -5.546875 -1.328125 l -5.238282 2.617188" fill="none" stroke="url(#i)" stroke-linecap="round" transform="matrix(1 0 0 1 1.823223 -174.707107)"/>
                        </g>
                    </g>
                    <path d="m 47.050781 72.140625 c -1.527343 1.527344 -3.226562 2.5625 -5.089843 3.097656 c -1.882813 0.523438 -3.785157 0.515625 -5.707032 -0.019531 c -1.9375 -0.554688 -3.757812 -1.675781 -5.453125 -3.375 l -0.636719 -0.636719 c -1.710937 -1.710937 -2.835937 -3.527343 -3.371093 -5.449219 c -0.554688 -1.9375 -0.566407 -3.847656 -0.042969 -5.730468 c 0.523438 -1.878906 1.546875 -3.582032 3.074219 -5.109375 c 1.542969 -1.542969 3.253906 -2.574219 5.132812 -3.097657 c 1.882813 -0.523437 3.792969 -0.511718 5.730469 0.042969 c 1.9375 0.523438 3.761719 1.640625 5.472656 3.351563 l 0.636719 0.636718 c 1.695313 1.695313 2.8125 3.519532 3.351563 5.472657 c 0.535156 1.921875 0.542968 3.824219 0.019531 5.703125 c -0.535157 1.867187 -1.578125 3.574218 -3.117188 5.113281 z m -4.835937 -4.835937 c 0.71875 -0.722657 1.03125 -1.570313 0.933594 -2.546876 c -0.101563 -1.003906 -0.75 -2.105468 -1.953126 -3.308593 l -0.636718 -0.636719 c -1.214844 -1.214844 -2.332032 -1.878906 -3.351563 -1.992188 c -1.003906 -0.128906 -1.867187 0.167969 -2.585937 0.890626 c -0.707032 0.707031 -1 1.5625 -0.871094 2.566406 c 0.125 1.003906 0.796875 2.113281 2.015625 3.332031 l 0.636719 0.636719 c 1.199218 1.199218 2.296875 1.859375 3.285156 1.972656 c 0.976562 0.097656 1.820312 -0.207031 2.527344 -0.914062 z m 43.1875 -2.714844 c -1.527344 1.527344 -3.222656 2.558594 -5.089844 3.097656 c -1.882812 0.523438 -3.785156 0.515625 -5.707031 -0.023438 c -1.9375 -0.550781 -3.753907 -1.675781 -5.453125 -3.371093 l -0.632813 -0.636719 c -1.714843 -1.710938 -2.835937 -3.527344 -3.375 -5.453125 c -0.550781 -1.9375 -0.566406 -3.84375 -0.042969 -5.726563 c 0.523438 -1.878906 1.550782 -3.585937 3.078126 -5.113281 c 1.539062 -1.539062 3.25 -2.574219 5.132812 -3.097656 c 1.878906 -0.519531 3.789062 -0.507813 5.726562 0.042969 c 1.9375 0.523437 3.761719 1.640625 5.472657 3.351562 l 0.636719 0.636719 c 1.699218 1.699219 2.816406 3.523437 3.351562 5.472656 c 0.539062 1.925781 0.542969 3.828125 0.023438 5.707031 c -0.539063 1.867188 -1.578126 3.570313 -3.121094 5.113282 z m -4.835938 -4.835938 c 0.722656 -0.722656 1.03125 -1.570312 0.933594 -2.546875 c -0.097656 -1.003906 -0.75 -2.105469 -1.953125 -3.308593 l -0.632813 -0.636719 c -1.21875 -1.214844 -2.335937 -1.878907 -3.355468 -1.992188 c -1.003906 -0.128906 -1.863282 0.167969 -2.585938 0.890625 c -0.707031 0.707032 -0.996094 1.5625 -0.871094 2.566406 c 0.128907 1.003907 0.800782 2.113282 2.015626 3.328126 l 0.636718 0.636718 c 1.203125 1.203125 2.296875 1.859375 3.289063 1.972656 c 0.976562 0.101563 1.816406 -0.203124 2.523437 -0.910156 z m -20.703125 29.359375 l -9.886719 -53.332031 l 5.429688 -5.429688 l 9.886719 53.328126 z m 0 0" fill="#d42539"/>
                    <path d="m 47.800781 74.390625 c -1.527343 1.527344 -3.226562 2.5625 -5.089843 3.097656 c -1.882813 0.523438 -3.785157 0.515625 -5.707032 -0.019531 c -1.9375 -0.554688 -3.757812 -1.675781 -5.453125 -3.375 l -0.636719 -0.636719 c -1.710937 -1.710937 -2.835937 -3.527343 -3.371093 -5.449219 c -0.554688 -1.9375 -0.566407 -3.847656 -0.042969 -5.730468 c 0.523438 -1.878906 1.546875 -3.582032 3.074219 -5.109375 c 1.542969 -1.542969 3.253906 -2.574219 5.132812 -3.097657 c 1.882813 -0.523437 3.792969 -0.511718 5.730469 0.042969 c 1.9375 0.523438 3.761719 1.640625 5.472656 3.351563 l 0.636719 0.636718 c 1.695313 1.695313 2.8125 3.519532 3.351563 5.472657 c 0.535156 1.921875 0.542968 3.824219 0.019531 5.703125 c -0.535157 1.867187 -1.578125 3.574218 -3.117188 5.113281 z m -4.835937 -4.835937 c 0.71875 -0.722657 1.03125 -1.570313 0.933594 -2.546876 c -0.101563 -1.003906 -0.75 -2.105468 -1.953126 -3.308593 l -0.636718 -0.636719 c -1.214844 -1.214844 -2.332032 -1.878906 -3.351563 -1.992188 c -1.003906 -0.128906 -1.867187 0.167969 -2.585937 0.890626 c -0.707032 0.707031 -1 1.5625 -0.871094 2.566406 c 0.125 1.003906 0.796875 2.113281 2.015625 3.332031 l 0.636719 0.636719 c 1.199218 1.199218 2.296875 1.859375 3.285156 1.972656 c 0.976562 0.097656 1.820312 -0.207031 2.527344 -0.914062 z m 43.1875 -2.714844 c -1.527344 1.527344 -3.222656 2.558594 -5.089844 3.097656 c -1.882812 0.523438 -3.785156 0.515625 -5.707031 -0.023438 c -1.9375 -0.550781 -3.753907 -1.675781 -5.453125 -3.371093 l -0.632813 -0.636719 c -1.714843 -1.710938 -2.835937 -3.527344 -3.375 -5.453125 c -0.550781 -1.9375 -0.566406 -3.84375 -0.042969 -5.726563 c 0.523438 -1.878906 1.550782 -3.585937 3.078126 -5.113281 c 1.539062 -1.539062 3.25 -2.574219 5.132812 -3.097656 c 1.878906 -0.519531 3.789062 -0.507813 5.726562 0.042969 c 1.9375 0.523437 3.761719 1.640625 5.472657 3.351562 l 0.636719 0.636719 c 1.699218 1.699219 2.816406 3.523437 3.351562 5.472656 c 0.539062 1.925781 0.542969 3.828125 0.023438 5.707031 c -0.539063 1.867188 -1.578126 3.570313 -3.121094 5.113282 z m -4.835938 -4.835938 c 0.722656 -0.722656 1.03125 -1.570312 0.933594 -2.546875 c -0.097656 -1.003906 -0.75 -2.105469 -1.953125 -3.308593 l -0.632813 -0.636719 c -1.21875 -1.214844 -2.335937 -1.878907 -3.355468 -1.992188 c -1.003906 -0.128906 -1.863282 0.167969 -2.585938 0.890625 c -0.707031 0.707032 -0.996094 1.5625 -0.871094 2.566406 c 0.128907 1.003907 0.800782 2.113282 2.015626 3.328126 l 0.636718 0.636718 c 1.203125 1.203125 2.296875 1.859375 3.289063 1.972656 c 0.976562 0.101563 1.816406 -0.203124 2.523437 -0.910156 z m -20.703125 29.359375 l -9.886719 -53.332031 l 5.429688 -5.429688 l 9.886719 53.328126 z m 0 0" fill="#f43f2b"/>
                </g>
            </g>
        </g>
    </mask>
    <mask id="s">
        <g filter="url(#a)">
            <rect fill-opacity="0.8" height="184.32" width="184.32" x="-28.16" y="-28.16"/>
        </g>
    </mask>
    <linearGradient id="t" gradientTransform="matrix(0 0.37 -0.98462 0 295.38501 -30.360001)" gradientUnits="userSpaceOnUse" x1="300" x2="428" y1="235" y2="235">
        <stop offset="0" stop-color="#f9f06b"/>
        <stop offset="1" stop-color="#f5c211"/>
    </linearGradient>
    <clipPath id="u">
        <rect height="128" width="128"/>
    </clipPath>
    <clipPath id="v">
        <rect height="128" width="128"/>
    </clipPath>
    <path d="m 91.875 198.0625 c 5.886719 2.246094 11.175781 -5.808594 15.625 -9.75" fill="none" stroke="url(#b)" stroke-linecap="round" stroke-width="3" transform="matrix(1 0 0 1 0 -172)"/>
    <path d="m 95.75 203.9375 c -0.238281 -6.753906 9.175781 -9.621094 13.625 -13.5625" fill="none" stroke="url(#b)" stroke-linecap="round" stroke-width="3" transform="matrix(1 0 0 1 0 -172)"/>
    <path d="m 103.15625 20.558594 c -4.097656 -4.097656 -9.648438 -6.414063 -15.445312 -6.445313 l -29.988282 -0.164062 c -6.464844 -0.03125 -12.671875 2.519531 -17.246094 7.089843 l -36.273437 36.277344 c -3.945313 3.945313 -3.945313 10.339844 0 14.285156 l 47.949219 47.945313 c 3.945312 3.949219 10.339844 3.949219 14.285156 0.003906 l 36.273438 -36.273437 c 4.570312 -4.574219 7.121093 -10.785156 7.082031 -17.25 l -0.179688 -30.027344 c -0.035156 -5.796875 -2.355469 -11.34375 -6.457031 -15.441406 z m -6.578125 6.605468 c 3.234375 3.230469 3.234375 8.472657 0 11.707032 c -3.230469 3.230468 -8.472656 3.230468 -11.703125 0 c -3.234375 -3.234375 -3.234375 -8.476563 0 -11.707032 c 3.230469 -3.234374 8.472656 -3.234374 11.703125 0 z m 0 0" fill="url(#c)"/>
    <path d="m 103.15625 18.558594 c -4.097656 -4.097656 -9.648438 -6.414063 -15.445312 -6.445313 l -29.988282 -0.164062 c -6.464844 -0.03125 -12.671875 2.519531 -17.246094 7.089843 l -36.273437 36.277344 c -3.945313 3.945313 -3.945313 10.339844 0 14.285156 l 47.949219 47.945313 c 3.945312 3.949219 10.339844 3.949219 14.285156 0.003906 l 36.273438 -36.273437 c 4.570312 -4.574219 7.121093 -10.785156 7.082031 -17.25 l -0.179688 -30.027344 c -0.035156 -5.796875 -2.355469 -11.34375 -6.457031 -15.441406 z m -6.578125 6.605468 c 3.234375 3.230469 3.234375 8.472657 0 11.707032 c -3.230469 3.230468 -8.472656 3.230468 -11.703125 0 c -3.234375 -3.234375 -3.234375 -8.476563 0 -11.707032 c 3.230469 -3.234374 8.472656 -3.234374 11.703125 0 z m 0 0" fill="url(#d)"/>
    <path d="m 91.75 26 l 7.058594 -10.582031 c 1.132812 -1.703125 3.027344 -2.75 5.070312 -2.808594 c 2.046875 -0.054687 3.992188 0.882813 5.222657 2.519531 l 1.300781 1.742188 c 1.277344 1.699218 1.6875 3.894531 1.113281 5.941406 s -2.066406 3.707031 -4.039062 4.496094 l -11.726563 4.691406" fill="none" stroke="#5e5c64" stroke-linecap="round" stroke-width="3"/>
    <path d="m 91.75 25.292969 l 7.058594 -10.582032 c 1.132812 -1.703125 3.027344 -2.75 5.070312 -2.808593 c 2.046875 -0.054688 3.992188 0.882812 5.222657 2.519531 l 1.300781 1.742187 c 1.277344 1.699219 1.6875 3.894532 1.113281 5.941407 s -2.066406 3.707031 -4.039062 4.496093 l -11.726563 4.691407" fill="none" stroke="#9a9996" stroke-linecap="round"/>
    <g clip-path="url(#e)">
        <g clip-path="url(#f)">
            <path d="m 106.000995 190 l 4.527344 -6.789062 c 0.816406 -1.230469 2.167969 -1.996094 3.640625 -2.078126 c 1.472656 -0.078124 2.894531 0.542969 3.839844 1.675782 l 1.984375 2.382812 c 2.511719 3.015625 3.40625 7.0625 2.394531 10.859375 l -2.636719 9.886719 c -2.460937 9.222656 -2.535156 18.921875 -0.222656 28.179688 l 1.597656 6.382812 c 1.222657 4.894531 0.257813 10.082031 -2.644531 14.210938 c -2.90625 4.125 -7.460937 6.785156 -12.480469 7.289062 c -4.714843 0.472656 -9.371093 -1.308594 -12.566406 -4.800781 c -3.199219 -3.496094 -4.558594 -8.292969 -3.671875 -12.945313 c 3.199219 -15.371094 10.773438 -29.492187 21.808594 -40.664062 l 6.855469 -7.179688 c 1.488281 -1.558594 1.640625 -3.964844 0.359375 -5.699218 c -1.277344 -1.730469 -3.621094 -2.292969 -5.546875 -1.328126 l -5.238282 2.617188" fill="none" stroke="#5e5c64" stroke-linecap="round" stroke-width="3" transform="matrix(1 0 0 1 1.823223 -174)"/>
        </g>
    </g>
    <g clip-path="url(#g)">
        <g clip-path="url(#h)">
            <path d="m 106.000995 190.000076 l 4.527344 -6.789063 c 0.816406 -1.230469 2.167969 -1.996094 3.640625 -2.078125 c 1.472656 -0.078125 2.894531 0.542969 3.839844 1.675781 l 1.984375 2.382813 c 2.511719 3.015625 3.40625 7.0625 2.394531 10.859375 l -2.636719 9.886719 c -2.460937 9.222656 -2.535156 18.921875 -0.222656 28.179687 l 1.597656 6.382813 c 1.222657 4.894531 0.257813 10.082031 -2.644531 14.210937 c -2.90625 4.125 -7.460937 6.785156 -12.480469 7.289063 c -4.714843 0.472656 -9.371093 -1.308594 -12.566406 -4.800782 c -3.199219 -3.496093 -4.558594 -8.292968 -3.671875 -12.945312 c 3.199219 -15.371094 10.773438 -29.492188 21.808594 -40.664063 l 6.855469 -7.179687 c 1.488281 -1.5625 1.640625 -3.964844 0.359375 -5.699219 c -1.277344 -1.730469 -3.621094 -2.292969 -5.546875 -1.328125 l -5.238282 2.617188" fill="none" stroke="url(#i)" stroke-linecap="round" transform="matrix(1 0 0 1 1.823223 -174.707107)"/>
        </g>
    </g>
    <path d="m 47.050781 72.140625 c -1.527343 1.527344 -3.226562 2.5625 -5.089843 3.097656 c -1.882813 0.523438 -3.785157 0.515625 -5.707032 -0.019531 c -1.9375 -0.554688 -3.757812 -1.675781 -5.453125 -3.375 l -0.636719 -0.636719 c -1.710937 -1.710937 -2.835937 -3.527343 -3.371093 -5.449219 c -0.554688 -1.9375 -0.566407 -3.847656 -0.042969 -5.730468 c 0.523438 -1.878906 1.546875 -3.582032 3.074219 -5.109375 c 1.542969 -1.542969 3.253906 -2.574219 5.132812 -3.097657 c 1.882813 -0.523437 3.792969 -0.511718 5.730469 0.042969 c 1.9375 0.523438 3.761719 1.640625 5.472656 3.351563 l 0.636719 0.636718 c 1.695313 1.695313 2.8125 3.519532 3.351563 5.472657 c 0.535156 1.921875 0.542968 3.824219 0.019531 5.703125 c -0.535157 1.867187 -1.578125 3.574218 -3.117188 5.113281 z m -4.835937 -4.835937 c 0.71875 -0.722657 1.03125 -1.570313 0.933594 -2.546876 c -0.101563 -1.003906 -0.75 -2.105468 -1.953126 -3.308593 l -0.636718 -0.636719 c -1.214844 -1.214844 -2.332032 -1.878906 -3.351563 -1.992188 c -1.003906 -0.128906 -1.867187 0.167969 -2.585937 0.890626 c -0.707032 0.707031 -1 1.5625 -0.871094 2.566406 c 0.125 1.003906 0.796875 2.113281 2.015625 3.332031 l 0.636719 0.636719 c 1.199218 1.199218 2.296875 1.859375 3.285156 1.972656 c 0.976562 0.097656 1.820312 -0.207031 2.527344 -0.914062 z m 43.1875 -2.714844 c -1.527344 1.527344 -3.222656 2.558594 -5.089844 3.097656 c -1.882812 0.523438 -3.785156 0.515625 -5.707031 -0.023438 c -1.9375 -0.550781 -3.753907 -1.675781 -5.453125 -3.371093 l -0.632813 -0.636719 c -1.714843 -1.710938 -2.835937 -3.527344 -3.375 -5.453125 c -0.550781 -1.9375 -0.566406 -3.84375 -0.042969 -5.726563 c 0.523438 -1.878906 1.550782 -3.585937 3.078126 -5.113281 c 1.539062 -1.539062 3.25 -2.574219 5.132812 -3.097656 c 1.878906 -0.519531 3.789062 -0.507813 5.726562 0.042969 c 1.9375 0.523437 3.761719 1.640625 5.472657 3.351562 l 0.636719 0.636719 c 1.699218 1.699219 2.816406 3.523437 3.351562 5.472656 c 0.539062 1.925781 0.542969 3.828125 0.023438 5.707031 c -0.539063 1.867188 -1.578126 3.570313 -3.121094 5.113282 z m -4.835938 -4.835938 c 0.722656 -0.722656 1.03125 -1.570312 0.933594 -2.546875 c -0.097656 -1.003906 -0.75 -2.105469 -1.953125 -3.308593 l -0.632813 -0.636719 c -1.21875 -1.214844 -2.335937 -1.878907 -3.355468 -1.992188 c -1.003906 -0.128906 -1.863282 0.167969 -2.585938 0.890625 c -0.707031 0.707032 -0.996094 1.5625 -0.871094 2.566406 c 0.128907 1.003907 0.800782 2.113282 2.015626 3.328126 l 0.636718 0.636718 c 1.203125 1.203125 2.296875 1.859375 3.289063 1.972656 c 0.976562 0.101563 1.816406 -0.203124 2.523437 -0.910156 z m -20.703125 29.359375 l -9.886719 -53.332031 l 5.429688 -5.429688 l 9.886719 53.328126 z m 0 0" fill="#d42539"/>
    <path d="m 47.800781 74.390625 c -1.527343 1.527344 -3.226562 2.5625 -5.089843 3.097656 c -1.882813 0.523438 -3.785157 0.515625 -5.707032 -0.019531 c -1.9375 -0.554688 -3.757812 -1.675781 -5.453125 -3.375 l -0.636719 -0.636719 c -1.710937 -1.710937 -2.835937 -3.527343 -3.371093 -5.449219 c -0.554688 -1.9375 -0.566407 -3.847656 -0.042969 -5.730468 c 0.523438 -1.878906 1.546875 -3.582032 3.074219 -5.109375 c 1.542969 -1.542969 3.253906 -2.574219 5.132812 -3.097657 c 1.882813 -0.523437 3.792969 -0.511718 5.730469 0.042969 c 1.9375 0.523438 3.761719 1.640625 5.472656 3.351563 l 0.636719 0.636718 c 1.695313 1.695313 2.8125 3.519532 3.351563 5.472657 c 0.535156 1.921875 0.542968 3.824219 0.019531 5.703125 c -0.535157 1.867187 -1.578125 3.574218 -3.117188 5.113281 z m -4.835937 -4.835937 c 0.71875 -0.722657 1.03125 -1.570313 0.933594 -2.546876 c -0.101563 -1.003906 -0.75 -2.105468 -1.953126 -3.308593 l -0.636718 -0.636719 c -1.214844 -1.214844 -2.332032 -1.878906 -3.351563 -1.992188 c -1.003906 -0.128906 -1.867187 0.167969 -2.585937 0.890626 c -0.707032 0.707031 -1 1.5625 -0.871094 2.566406 c 0.125 1.003906 0.796875 2.113281 2.015625 3.332031 l 0.636719 0.636719 c 1.199218 1.199218 2.296875 1.859375 3.285156 1.972656 c 0.976562 0.097656 1.820312 -0.207031 2.527344 -0.914062 z m 43.1875 -2.714844 c -1.527344 1.527344 -3.222656 2.558594 -5.089844 3.097656 c -1.882812 0.523438 -3.785156 0.515625 -5.707031 -0.023438 c -1.9375 -0.550781 -3.753907 -1.675781 -5.453125 -3.371093 l -0.632813 -0.636719 c -1.714843 -1.710938 -2.835937 -3.527344 -3.375 -5.453125 c -0.550781 -1.9375 -0.566406 -3.84375 -0.042969 -5.726563 c 0.523438 -1.878906 1.550782 -3.585937 3.078126 -5.113281 c 1.539062 -1.539062 3.25 -2.574219 5.132812 -3.097656 c 1.878906 -0.519531 3.789062 -0.507813 5.726562 0.042969 c 1.9375 0.523437 3.761719 1.640625 5.472657 3.351562 l 0.636719 0.636719 c 1.699218 1.699219 2.816406 3.523437 3.351562 5.472656 c 0.539062 1.925781 0.542969 3.828125 0.023438 5.707031 c -0.539063 1.867188 -1.578126 3.570313 -3.121094 5.113282 z m -4.835938 -4.835938 c 0.722656 -0.722656 1.03125 -1.570312 0.933594 -2.546875 c -0.097656 -1.003906 -0.75 -2.105469 -1.953125 -3.308593 l -0.632813 -0.636719 c -1.21875 -1.214844 -2.335937 -1.878907 -3.355468 -1.992188 c -1.003906 -0.128906 -1.863282 0.167969 -2.585938 0.890625 c -0.707031 0.707032 -0.996094 1.5625 -0.871094 2.566406 c 0.128907 1.003907 0.800782 2.113282 2.015626 3.328126 l 0.636718 0.636718 c 1.203125 1.203125 2.296875 1.859375 3.289063 1.972656 c 0.976562 0.101563 1.816406 -0.203124 2.523437 -0.910156 z m -20.703125 29.359375 l -9.886719 -53.332031 l 5.429688 -5.429688 l 9.886719 53.328126 z m 0 0" fill="#f43f2b"/>
    <g mask="url(#r)">
        <g clip-path="url(#v)">
            <g mask="url(#s)">
                <g clip-path="url(#u)">
                    <path d="m 128 80.640625 v 47.359375 h -128 v -47.359375 z m 0 0" fill="url(#t)"/>
                    <path d="m 13.308594 80.640625 l 47.355468 47.359375 h 21.214844 l -47.359375 -47.359375 z m 42.421875 0 l 47.363281 47.359375 h 21.214844 l -47.363282 -47.359375 z m 42.429687 0 l 29.839844 29.839844 v -21.210938 l -8.628906 -8.628906 z m -98.160156 7.90625 v 21.214844 l 18.238281 18.238281 h 21.214844 z m 0 0"/>
                </g>
            </g>
        </g>
    </g>
</svg>
